<?xml version="1.0" encoding="UTF-8"?> <svg xmlns="http://www.w3.org/2000/svg" width="40" height="40" viewBox="0 0 40 40" fill="none"><path fill-rule="evenodd" clip-rule="evenodd" d="M30 40C34.4183 40 38 36.4183 38 32C38 27.5817 34.4183 24 30 24C25.5817 24 22 27.5817 22 32C22 36.4183 25.5817 40 30 40ZM26 31V29H34V31H26ZM26 35V33H34V35H26Z" fill="#172B02"></path><path d="M20.9603 2H11.04C10.8798 2 10.7499 2.1132 10.7499 2.25284V6.34209L21.2504 6.34188V2.25284C21.2504 2.1132 21.1205 2 20.9603 2Z" fill="#172B02"></path><path fill-rule="evenodd" clip-rule="evenodd" d="M23.2213 4.03072V6.69112C23.2213 7.75463 22.1805 8.20299 21.5114 8.20299H10.6114C9.94223 8.20299 8.90152 7.75463 8.90152 6.69112V4.03072H6.6309C5.73395 4.03072 5.00009 4.70681 5.00009 5.53314L5 30.4976C5 31.3239 5.73386 32 6.63081 32H20C20 27.5224 22.9429 23.7321 26.9999 22.4578L27 5.53314C27 4.70681 26.2661 4.03072 25.3692 4.03072H23.2213ZM14.6281 22.0674L20.884 15.3646L19.4219 14L14.4778 19.2972L12.3059 17.4249L11 18.9397L14.6281 22.0674Z" fill="#172B02"></path></svg> 