<?xml version="1.0" encoding="UTF-8"?> <svg xmlns="http://www.w3.org/2000/svg" width="40" height="40" viewBox="0 0 40 40" fill="none"><path fill-rule="evenodd" clip-rule="evenodd" d="M21.1318 9.25095C21.8216 8.85187 22.3559 8.21384 22.6214 7.45005C22.6818 7.46015 22.7438 7.4654 22.807 7.4654H28.3594C28.507 7.4654 28.6451 7.53855 28.728 7.66071C29.2677 8.45606 29.9749 9.04062 30.7609 9.41439L27.989 17.4993C27.2391 18.5617 26.7979 19.8649 26.7979 21.2712C26.7979 24.8344 29.6249 27.7359 33.1398 27.7359C36.654 27.7359 39.4872 24.835 39.4872 21.2712C39.4872 19.83 39.023 18.4973 38.238 17.421L34.9222 9.53231C35.8148 9.16921 36.6224 8.54534 37.2227 7.6607L37.6874 6.9758C38.0337 6.46555 37.9007 5.77122 37.3905 5.42497C36.8802 5.07873 36.1859 5.21169 35.8396 5.72194L35.3749 6.40684C34.2244 8.10229 31.7263 8.10229 30.5758 6.40684C30.0773 5.67223 29.2472 5.23235 28.3594 5.23235H22.807C22.7436 5.23235 22.6815 5.23763 22.621 5.24777C22.1653 3.93912 20.9208 3 19.4568 3C17.993 3 16.7484 3.93907 16.2927 5.24767C16.2324 5.23759 16.1705 5.23235 16.1074 5.23235H10.5549C9.66714 5.23235 8.83705 5.67223 8.33856 6.40684C7.18808 8.10229 4.68991 8.10229 3.53943 6.40684L3.07468 5.72194C2.72844 5.21169 2.0341 5.07873 1.52385 5.42497C1.01359 5.77122 0.880637 6.46555 1.22688 6.9758L1.69163 7.6607C2.39959 8.70401 3.39586 9.38461 4.47998 9.70251L1.21549 17.469C0.451538 18.5368 0.000976562 19.8514 0.000976562 21.2712C0.000976562 24.835 2.83417 27.7359 6.34843 27.7359C9.86328 27.7359 12.6903 24.8344 12.6903 21.2712C12.6903 19.8474 12.2381 18.5294 11.4712 17.4599L8.62505 9.15859C9.22171 8.79268 9.75704 8.29338 10.1864 7.66071C10.2692 7.53855 10.4073 7.4654 10.5549 7.4654H16.1074C16.1704 7.4654 16.2321 7.46018 16.2923 7.45016C16.5579 8.21402 17.0923 8.85209 17.7822 9.25114L17.7822 33.913H21.1318L21.1318 9.25095ZM31.6524 9.7404C32.4217 9.9432 33.2305 9.9657 34.0085 9.8079L36.5294 15.8052C35.549 15.1729 34.3866 14.8065 33.1398 14.8065C31.7925 14.8065 30.5449 15.2342 29.519 15.9628L31.6524 9.7404ZM7.76601 9.57929C7.01955 9.86117 6.21831 9.96366 5.43201 9.88675L2.93889 15.8181C3.92345 15.1779 5.09309 14.8065 6.34843 14.8065C7.68733 14.8065 8.92779 15.2289 9.95001 15.9493L7.76601 9.57929Z" fill="#172B02"></path><path d="M27.8313 35.0296C27.8313 34.413 27.3314 33.9131 26.7148 33.9131H12.2C11.5833 33.9131 11.0834 34.413 11.0834 35.0296V37.2627H27.8313V35.0296Z" fill="#172B02"></path></svg> 