<?xml version="1.0" encoding="UTF-8"?> <svg xmlns="http://www.w3.org/2000/svg" width="40" height="40" viewBox="0 0 40 40" fill="none"><path fill-rule="evenodd" clip-rule="evenodd" d="M30.901 8.79051C31.2805 8.49992 31.075 7.89351 30.597 7.89351H23.3078C23.0885 7.89351 22.8948 7.75062 22.8301 7.54111L20.6091 0.352405C20.4639 -0.117468 19.7988 -0.117468 19.6536 0.352405L17.4326 7.54111C17.3679 7.75062 17.1742 7.89351 16.9549 7.89351H9.67131C9.19273 7.89351 8.9876 8.50116 9.36827 8.79121L15.3046 13.3145C15.4714 13.4416 15.5412 13.6594 15.4792 13.8598L13.2355 21.1222C13.0919 21.587 13.6293 21.9623 14.0162 21.6675L20.1669 16.9808L24.7159 13.5262L30.901 8.79051ZM20.3953 17.4575C20.2872 17.3742 20.3214 17.2032 20.4532 17.1679L25.1666 15.9058C25.2522 15.8829 25.3407 15.9318 25.3667 16.0166L27.336 22.4294C27.3831 22.5829 27.2051 22.7063 27.0779 22.6082L20.3953 17.4575ZM14.9011 33.9375L8.46635 27.9378L10.6528 26.0361C12.9614 24.1478 14.8518 22.799 16.7131 22.799C19.0567 22.799 21.1512 23.1707 22.8934 23.4799L22.8951 23.4802C23.0831 23.5135 23.2669 23.5462 23.4465 23.5775C25.3228 23.905 25.5172 26.5101 23.2684 26.5101H18.9603L18.9598 27.103C20.058 27.103 21.2867 27.1286 22.0022 27.1497C23.7099 27.1998 24.5164 27.2235 25.3228 26.8086C26.7298 26.0847 29.3103 23.4131 30.8705 21.7977L30.8706 21.7977L30.871 21.7972L30.8742 21.7939C31.0386 21.6237 31.1917 21.4652 31.3309 21.322C33.6196 18.9668 36.3852 21.322 34.4779 23.6772C34.2019 24.018 34.0752 24.1805 33.9969 24.2808C33.9572 24.3317 33.9299 24.3666 33.9019 24.401C33.8403 24.4761 33.7744 24.5486 33.5658 24.7781L33.5651 24.7789L33.5649 24.7792L33.5647 24.7793C33.3092 25.0605 32.8398 25.577 31.903 26.6213C28.4699 30.4485 25.5447 31.9205 23.6063 31.9205L18.4565 31.9205C17.3122 31.9205 16.74 32.2149 16.1678 32.8037L14.9011 33.9375ZM5.55734 28.2633C6.02663 27.7737 6.80522 27.756 7.29637 28.2239L14.3561 34.9284C14.8473 35.3963 14.865 36.1724 14.3957 36.6621L12.3919 38.7439C11.9226 39.2335 11.144 39.2512 10.6529 38.7834L3.59317 32.0788C3.10202 31.611 3.0843 30.8348 3.55359 30.3452L5.55734 28.2633Z" fill="#172B02"></path></svg> 